<?xml version="1.0" encoding="utf-8"?>
<!--Designed by Vexels.com - 2017 All Rights Reserved - https://vexels.com/terms-and-conditions/-->

<svg version="1.1" id="Capa_1" xmlns="http://www.w3.org/2000/svg" xmlns:xlink="http://www.w3.org/1999/xlink" x="0px" y="0px"
	 width="1200px" height="1200px" viewBox="0 0 1200 1200" enable-background="new 0 0 1200 1200" xml:space="preserve">
<g>
	<path fill-rule="evenodd" clip-rule="evenodd" fill="#1E1E1E" d="M349.236,173.148c26.072,16.147,48.822,25.828,66.578,42.067
		c56.176,51.377,66.979,137.735,28.012,203.875c-38.566,65.458-117.004,89.055-182.014,54.765
		c-63.99-33.752-91.878-113.714-72.249-191.239C239.887,83.866,445.087,11.828,596.91,69
		c168.623,63.495,276.938,233.515,282.311,442.543c9.117,354.253-214.742,586.89-495.945,631.076
		c-101.091,15.9-199.98,6.891-296.422-34.64c6.954,0.443,13.915,0.671,20.847,1.404c7.005,0.744,13.959,2.2,20.964,3.017
		c190.031,21.975,360.587-27.728,504.282-169.161c164.142-161.568,199.384-456.181,79.487-647.357
		c-73.307-116.896-203.058-174.896-316.927-141.124C380.732,159.129,366.621,166.153,349.236,173.148z"/>
	<path fill-rule="evenodd" clip-rule="evenodd" fill="#1E1E1E" d="M1027.158,676.769c48.828,0.6,86.134,42.431,85.988,96.421
		c-0.146,54.796-39.492,97.453-88.919,96.358c-48.763-1.086-86.411-43.227-86.331-96.658
		C937.984,718.021,976.871,676.17,1027.158,676.769z"/>
	<path fill-rule="evenodd" clip-rule="evenodd" fill="#1E1E1E" d="M1025.722,361.05c49.595-0.051,86.899,40.302,87.366,94.509
		c0.474,55.003-38.034,97.991-87.497,97.67c-49.092-0.31-87.053-41.365-87.709-94.88
		C937.175,403.325,975.289,361.123,1025.722,361.05z"/>
</g>
</svg>
